<?xml version="1.0" standalone="no"?>
<!DOCTYPE svg PUBLIC "-//W3C//DTD SVG 20010904//EN"
 "http://www.w3.org/TR/2001/REC-SVG-20010904/DTD/svg10.dtd">
<svg version="1.0" xmlns="http://www.w3.org/2000/svg"
 width="1022.000000pt" height="1022.000000pt" viewBox="0 0 1022.000000 1022.000000"
 preserveAspectRatio="xMidYMid meet">
<metadata>
Created by potrace 1.14, written by Peter Selinger 2001-2017
</metadata>
<g transform="translate(0.000000,1022.000000) scale(0.100000,-0.100000)"
fill="#000000" stroke="none">
<path d="M5107 10134 c-1 -1 -85 -5 -187 -8 -102 -4 -198 -8 -215 -10 -16 -2
-59 -7 -95 -10 -36 -4 -81 -8 -100 -11 -19 -2 -57 -7 -85 -10 -27 -4 -61 -8
-75 -10 -14 -2 -45 -6 -70 -10 -25 -3 -56 -8 -70 -10 -14 -3 -41 -7 -60 -10
-215 -35 -736 -193 -988 -299 -352 -149 -776 -391 -1042 -595 -47 -35 -105
-80 -130 -99 -25 -19 -60 -47 -77 -63 -18 -16 -35 -29 -38 -29 -2 0 -20 -15
-39 -32 -18 -18 -58 -53 -87 -78 -68 -57 -329 -318 -392 -393 -27 -32 -53 -55
-58 -52 -5 3 -7 0 -4 -7 2 -7 -13 -33 -35 -56 -22 -24 -40 -48 -40 -53 0 -5
-7 -9 -15 -9 -8 0 -14 -6 -12 -12 1 -7 -4 -12 -11 -10 -8 1 -11 -1 -8 -6 5 -9
-1 -18 -79 -116 -22 -28 -70 -93 -105 -145 -36 -51 -73 -102 -83 -112 -9 -11
-15 -19 -12 -19 5 0 -99 -168 -117 -190 -7 -8 -11 -15 -8 -15 2 0 -11 -28 -30
-62 -19 -34 -37 -60 -41 -57 -4 2 -6 -2 -5 -9 2 -17 -137 -287 -145 -281 -4 2
-5 -5 -2 -16 3 -12 0 -20 -6 -20 -7 0 -10 -4 -7 -8 3 -5 -4 -23 -15 -40 -10
-18 -19 -37 -19 -42 0 -6 -11 -33 -25 -62 -14 -28 -25 -56 -25 -61 0 -8 -5
-21 -40 -102 -7 -16 -15 -38 -17 -48 -1 -10 -10 -34 -19 -55 -10 -20 -18 -41
-18 -47 -5 -33 -19 -75 -24 -71 -4 2 -7 -6 -8 -17 -1 -31 -77 -281 -86 -285
-5 -2 -6 -8 -3 -13 6 -9 -45 -240 -55 -249 -3 -3 -5 -18 -4 -35 0 -16 -4 -50
-8 -75 -5 -25 -11 -61 -14 -80 -3 -19 -8 -46 -10 -60 -5 -25 -9 -54 -15 -120
-2 -19 -8 -38 -14 -42 -6 -5 -5 -8 3 -8 7 0 11 -4 7 -9 -3 -6 -8 -36 -11 -68
-2 -32 -7 -76 -9 -98 -8 -74 -13 -689 -6 -752 4 -41 3 -63 -4 -63 -6 0 -6 -3
1 -8 6 -4 11 -32 12 -62 2 -64 9 -155 12 -155 1 0 4 -25 7 -55 2 -30 8 -72 13
-93 5 -23 4 -39 -2 -43 -7 -4 -7 -9 0 -13 5 -3 12 -24 15 -46 5 -37 24 -153
32 -200 7 -39 14 -65 21 -77 4 -7 3 -8 -4 -4 -7 4 -12 2 -12 -3 0 -6 5 -11 11
-11 6 0 9 -9 6 -20 -3 -11 -1 -18 4 -14 5 3 10 -5 11 -18 3 -42 5 -53 16 -81
7 -15 13 -41 14 -57 1 -17 6 -30 11 -30 5 0 7 -6 4 -12 -2 -7 2 -28 10 -45 7
-18 13 -36 13 -40 1 -5 7 -30 15 -57 8 -27 12 -52 10 -56 -3 -5 0 -10 5 -12 6
-2 12 -10 13 -18 2 -8 6 -21 11 -28 4 -7 5 -16 2 -19 -3 -4 0 -16 7 -27 7 -12
19 -41 26 -65 10 -36 10 -45 -1 -53 -10 -8 -9 -9 4 -5 12 4 20 -6 33 -41 9
-26 16 -55 16 -64 0 -10 4 -18 9 -18 14 0 21 -32 9 -46 -10 -12 -9 -13 5 -8
14 5 18 0 15 -22 0 -4 5 -10 11 -14 7 -4 13 -19 13 -33 1 -14 4 -23 6 -21 8 8
41 -78 34 -90 -3 -6 -3 -8 2 -4 10 10 78 -121 71 -138 -3 -8 0 -13 7 -11 7 1
11 -6 11 -15 -1 -10 2 -16 6 -13 8 5 26 -35 21 -44 -2 -2 2 -7 9 -11 6 -4 12
-16 13 -28 0 -11 6 -20 11 -19 5 1 14 -11 20 -28 6 -16 19 -39 29 -50 10 -11
16 -28 13 -37 -2 -10 0 -16 5 -12 5 3 15 -8 21 -23 7 -15 18 -34 25 -41 7 -8
11 -18 8 -23 -4 -5 -2 -9 3 -9 5 0 32 -37 60 -83 89 -147 345 -484 471 -622
188 -204 347 -360 471 -461 19 -16 37 -31 40 -34 30 -34 323 -256 445 -337
192 -128 550 -323 745 -408 36 -15 83 -36 105 -45 77 -35 423 -153 535 -184
30 -8 82 -23 115 -32 33 -9 67 -18 75 -19 8 -2 65 -15 125 -29 61 -13 129 -27
151 -30 22 -4 49 -8 60 -10 11 -2 47 -7 79 -11 33 -4 68 -9 79 -11 10 -2 44
-6 75 -9 31 -4 67 -8 81 -10 14 -2 63 -7 110 -10 47 -4 101 -8 120 -11 43 -5
476 -4 545 1 114 8 212 16 248 20 125 16 251 33 302 41 17 3 41 7 55 9 179 25
604 143 861 238 491 183 993 473 1419 820 25 21 50 41 55 45 14 11 117 95 131
107 171 152 256 233 398 382 37 40 73 70 79 66 6 -3 7 -1 3 6 -4 6 -12 8 -18
5 -7 -5 -8 -2 -4 5 5 7 14 10 21 7 9 -3 11 2 8 15 -3 10 0 26 7 34 15 18 45
21 34 3 -4 -7 -3 -8 5 -4 6 4 9 11 6 16 -7 11 20 32 30 22 5 -4 5 -2 2 5 -4 6
-2 13 5 15 7 3 5 7 -6 11 -11 5 -15 3 -10 -5 4 -7 3 -8 -4 -4 -6 4 -8 14 -5
22 5 13 7 13 14 2 7 -11 9 -10 9 1 0 15 41 81 50 81 3 0 6 -9 6 -20 0 -14 -5
-19 -16 -15 -11 5 -12 3 -3 -6 15 -15 34 -3 26 18 -5 12 -3 14 7 8 8 -5 11 -4
6 3 -3 6 1 15 9 20 15 8 15 10 0 22 -13 11 -15 10 -10 -3 7 -17 -10 -33 -20
-17 -3 5 -1 10 4 10 6 0 10 4 9 8 -4 11 45 66 60 70 7 1 12 -4 12 -10 0 -9 3
-9 9 1 6 9 6 22 0 33 -12 23 6 25 19 2 8 -15 10 -15 15 0 5 12 3 15 -5 10 -7
-5 -9 -2 -5 9 4 12 2 15 -11 11 -14 -5 -15 -4 -2 5 19 14 43 14 35 1 -3 -5 -1
-10 5 -10 7 0 9 7 6 16 -3 9 -6 18 -6 20 0 3 -4 2 -10 -1 -5 -3 -10 -1 -10 4
0 15 27 14 34 -1 3 -7 3 -1 0 15 -6 26 5 34 39 28 5 -1 6 3 2 9 -3 5 -1 10 6
10 7 0 9 3 6 7 -4 4 4 19 19 34 17 17 22 29 15 34 -7 3 -10 3 -9 -2 4 -13 -60
-88 -68 -80 -4 4 -2 7 5 7 7 0 9 5 6 10 -3 5 -1 10 5 10 6 0 20 16 32 36 14
24 25 33 37 29 8 -3 12 -3 8 1 -4 4 1 13 11 21 15 13 15 13 -6 3 l-23 -11 23
34 c14 22 28 33 37 29 9 -3 12 -1 7 6 -3 6 4 21 16 33 13 12 17 19 11 15 -7
-4 -13 -4 -13 -1 0 9 63 99 73 103 4 2 7 10 7 18 0 8 5 14 10 14 6 0 10 4 10
9 0 6 18 38 39 73 91 147 225 412 276 543 14 39 30 79 35 90 27 60 158 471
175 548 2 12 9 42 16 67 32 133 57 252 73 350 30 191 41 290 61 547 10 131 4
601 -9 668 -2 11 -7 56 -10 100 -4 44 -9 91 -11 105 -2 14 -6 50 -10 80 -3 30
-10 78 -15 105 -9 48 -17 96 -26 160 -2 17 -9 48 -14 70 -5 22 -19 81 -31 130
-49 211 -124 453 -211 685 -22 58 -40 99 -91 215 -40 92 -199 403 -232 455
-15 23 -38 63 -52 88 -62 113 -346 521 -383 552 -3 3 -27 32 -54 65 -189 236
-472 511 -758 737 -93 74 -305 228 -314 228 -2 0 -28 16 -56 36 -89 63 -355
212 -543 304 -309 151 -601 257 -975 354 -74 19 -148 37 -165 39 -16 3 -50 10
-75 15 -42 10 -67 14 -160 28 -19 3 -45 7 -56 9 -12 2 -48 7 -80 10 -33 4 -67
9 -77 11 -9 1 -54 6 -100 9 -45 4 -93 8 -106 10 -33 6 -370 22 -374 19z m3813
-8229 c0 -2 -10 -10 -22 -16 -21 -11 -22 -11 -9 4 13 16 31 23 31 12z"/>
<path d="M70 5746 c0 -2 7 -7 16 -10 8 -3 12 -2 9 4 -6 10 -25 14 -25 6z"/>
<path d="M153 4055 c0 -8 4 -12 9 -9 5 3 6 10 3 15 -9 13 -12 11 -12 -6z"/>
<path d="M250 3639 c0 -5 5 -7 10 -4 6 3 10 8 10 11 0 2 -4 4 -10 4 -5 0 -10
-5 -10 -11z"/>
<path d="M9346 2513 c-6 -14 -5 -15 5 -6 7 7 10 15 7 18 -3 3 -9 -2 -12 -12z"/>
<path d="M9275 2410 c-3 -6 1 -7 9 -4 18 7 21 14 7 14 -6 0 -13 -4 -16 -10z"/>
<path d="M9034 2078 c-10 -12 -13 -18 -6 -14 6 4 12 2 12 -3 0 -6 5 -11 12
-11 6 0 8 3 5 7 -4 3 1 12 11 20 16 12 16 13 -2 6 -13 -4 -17 -3 -12 5 12 19
1 14 -20 -10z"/>
<path d="M8964 1962 c3 -5 0 -12 -6 -15 -7 -2 -10 -7 -7 -11 3 -4 12 0 18 8 9
11 9 16 0 22 -7 4 -9 3 -5 -4z"/>
<path d="M8867 1853 c-13 -12 -7 -23 11 -22 10 0 12 3 4 6 -6 2 -10 9 -6 14 6
10 0 12 -9 2z"/>
</g>
</svg>
